<svg width="24px" height="25px" viewBox="0 0 26 27" version="1.1" xmlns="http://www.w3.org/2000/svg" xmlns:xlink="http://www.w3.org/1999/xlink">
    <defs>
        <rect id="path-1" x="13" y="9" width="284" height="25"></rect>
        <filter x="-17.8%" y="-182.0%" width="135.6%" height="504.0%" filterUnits="objectBoundingBox" id="filter-2">
            <feMorphology radius="2.5" operator="dilate" in="SourceAlpha" result="shadowSpreadOuter1"></feMorphology>
            <feOffset dx="0" dy="5" in="shadowSpreadOuter1" result="shadowOffsetOuter1"></feOffset>
            <feGaussianBlur stdDeviation="13.5" in="shadowOffsetOuter1" result="shadowBlurOuter1"></feGaussianBlur>
            <feColorMatrix values="0 0 0 0 0   0 0 0 0 0   0 0 0 0 0  0 0 0 0.5 0" type="matrix" in="shadowBlurOuter1"></feColorMatrix>
        </filter>
    </defs>
    <g id="Symbols" stroke="none" stroke-width="1" fill="none" fill-rule="evenodd">
        <g id="Navbar" transform="translate(-147.000000, -6.000000)">
            <g>
                <g id="shadow-rectangle">
                    <use fill="black" fill-opacity="1" filter="url(#filter-2)" xlink:href="#path-1"></use>
                    <use fill="#D8D8D8" fill-rule="evenodd" xlink:href="#path-1"></use>
                </g>
                <rect id="Rectangle" fill="#FFFFFF" x="0" y="0.697247706" width="320" height="51"></rect>
            </g>
            <g id="map-(1)" transform="translate(148.683594, 7.000000)" fill="#008833" fill-rule="nonzero">
                <path d="M11.8164062,15 C14.8489421,15 17.3164062,12.5325358 17.3164062,9.5 C17.3164062,6.46746416 14.8489421,4 11.8164062,4 C8.78387041,4 6.31640625,6.46751573 6.31640625,9.5 C6.31640625,12.5324843 8.78392198,15 11.8164062,15 Z M11.8164062,5 C14.2982538,5 16.3164062,7.0187325 16.3164062,9.5 C16.3164062,11.9812675 14.2982538,14 11.8164062,14 C9.33455866,14 7.31640625,11.9812675 7.31640625,9.5 C7.31640625,7.0187325 9.3346114,5 11.8164062,5 Z" id="Shape" stroke="#008928"></path>
                <path d="M23.2747459,24.2741699 L20.1383395,16.9825195 C20.0556167,16.7907715 19.8667463,16.6666504 19.6574401,16.6666504 L17.8011776,16.6666504 L18.4424747,16.029834 C20.2373323,14.2547852 21.2256434,11.8916992 21.2256434,9.375 C21.2256434,4.20581055 17.0049714,0 11.816424,0 C6.6278766,0 2.40720463,4.20581055 2.40720463,9.375 C2.40720463,11.8916992 3.39551571,14.2547852 5.19037331,16.0288574 L5.83255253,16.6666992 L3.97540786,16.6666992 C3.76610174,16.6666992 3.57723126,16.7908203 3.49450854,16.9825684 L0.358102084,24.2742187 C0.289689218,24.4349609 0.306008333,24.6195801 0.403040907,24.7660645 C0.499044349,24.9120117 0.663411649,25 0.839001405,25 L22.7938466,25 C22.9694364,25 23.1338527,24.9120117 23.2298071,24.7660156 C23.3267907,24.6195313 23.3431098,24.4349121 23.2747459,24.2741699 Z M3.45265712,9.375 C3.45265712,4.78007812 7.20473036,1.04165039 11.816424,1.04165039 C16.4281176,1.04165039 20.1801909,4.78007812 20.1801909,9.375 C20.1801909,11.6119629 19.301115,13.7125488 17.7053702,15.2913574 L11.816424,21.1395508 L5.92747783,15.290332 C4.33173304,13.7125488 3.45265712,11.6119629 3.45265712,9.375 Z M1.63128708,23.9583496 L4.32051058,17.7083496 L6.88133745,17.7083496 L11.4478472,22.24375 C11.5489473,22.3449707 11.6826857,22.3958496 11.816424,22.3958496 C11.9501623,22.3958496 12.0839007,22.3449707 12.1850008,22.24375 L16.7522456,17.7083496 L19.3123864,17.7083496 L22.0016099,23.9583496 L1.63128708,23.9583496 Z" id="Shape" stroke="#008926"></path>
            </g>
        </g>
    </g>
</svg>