<svg width="24px" height="28px" viewBox="0 0 21 25" version="1.1" xmlns="http://www.w3.org/2000/svg" xmlns:xlink="http://www.w3.org/1999/xlink">
    <defs>
        <rect id="path-1" x="13" y="9" width="284" height="25"></rect>
        <filter x="-17.8%" y="-182.0%" width="135.6%" height="504.0%" filterUnits="objectBoundingBox" id="filter-2">
            <feMorphology radius="2.5" operator="dilate" in="SourceAlpha" result="shadowSpreadOuter1"></feMorphology>
            <feOffset dx="0" dy="5" in="shadowSpreadOuter1" result="shadowOffsetOuter1"></feOffset>
            <feGaussianBlur stdDeviation="13.5" in="shadowOffsetOuter1" result="shadowBlurOuter1"></feGaussianBlur>
            <feColorMatrix values="0 0 0 0 0   0 0 0 0 0   0 0 0 0 0  0 0 0 0.5 0" type="matrix" in="shadowBlurOuter1"></feColorMatrix>
        </filter>
    </defs>
    <g id="Symbols" stroke="none" stroke-width="1" fill="none" fill-rule="evenodd">
        <g id="Navbar" transform="translate(-55.000000, -7.000000)">
            <g id="shadow-rectangle">
                <use fill="black" fill-opacity="1" filter="url(#filter-2)" xlink:href="#path-1"></use>
                <use fill="#D8D8D8" fill-rule="evenodd" xlink:href="#path-1"></use>
            </g>
            <rect id="Rectangle" fill="#FFFFFF" x="0" y="0.697247706" width="320" height="51"></rect>
            <g id="alarm" transform="translate(55.000000, 7.000000)" fill="#008833" fill-rule="nonzero">
                <path d="M20.5285591,19.622273 C20.3179026,19.2996094 20.1021081,18.9871891 19.8863137,18.685012 C19.7270368,18.454538 19.5728979,18.239429 19.423897,18.0191982 C19.3468275,17.9014004 19.2697581,17.7887242 19.1926886,17.676048 C18.7919275,17.0768156 18.3757525,16.4570966 17.9955432,15.8373776 C17.327608,14.7515889 16.9422608,13.5787322 16.8138117,12.2471046 C16.7213284,11.2688705 16.5826034,10.295758 16.3924987,9.35337534 C16.1304626,8.03711265 15.5395969,6.99741876 14.6353154,6.26502357 C13.6077227,5.41995219 12.2821282,5.13826173 10.8948782,5.46604699 C10.08308,5.66066949 9.25073001,5.34824916 8.87052074,4.71316521 C8.68555406,4.40586653 8.59307073,4.05247304 8.60334665,3.68883627 C8.62903647,2.70035883 9.4613865,1.87577403 10.4530134,1.84504416 C11.2596736,1.82455758 11.9995403,2.31623548 12.2872662,3.06911725 C12.4670949,3.54543022 13.0014431,3.78614752 13.4792737,3.60176831 C13.9571042,3.42251074 14.1985885,2.88985969 14.0136218,2.41354673 C13.4484459,0.928269757 11.9944023,-0.0397210977 10.3964958,0.00125206016 C9.44597261,0.0268602838 8.5416911,0.421226928 7.858342,1.10240568 C7.16985494,1.78870607 6.77936975,2.6849939 6.75367993,3.63249818 C6.73312808,4.34440679 6.91809475,5.04607212 7.28289013,5.65554784 C8.08955034,6.99741876 9.71314669,7.63762436 11.3264671,7.253501 C11.901919,7.11521659 12.734269,7.07936508 13.4638598,7.67859751 C13.4638598,7.67859751 13.4689977,7.67859751 13.4689977,7.68371916 C14.0393116,8.14978883 14.404107,8.810481 14.5839357,9.70676883 C14.7586265,10.5876917 14.8922135,11.4942228 14.9795589,12.4109972 C15.1285598,14.0038288 15.6166663,15.4788624 16.4233265,16.7951251 C16.8240876,17.4404524 17.2505386,18.0755363 17.6615756,18.6901337 C17.7386451,18.8028099 17.8157145,18.9206077 17.892784,19.0332839 C18.0520608,19.2740012 18.2216136,19.5095968 18.3808905,19.7349492 C18.591547,20.0320046 18.7919275,20.3188167 18.9768942,20.6056288 C19.0539636,20.7234266 19.1772748,20.9436574 19.1515849,21.0921851 C19.1310331,21.2048613 19.0179979,21.3636322 18.8227553,21.5275249 C18.4271321,21.8655534 17.9081979,22.0652976 17.3995395,22.2240686 C15.7810811,22.7413547 13.982794,23.0332884 11.7272282,23.140843 L9.27641982,23.140843 C7.02599198,23.0384101 5.22256692,22.7464763 3.60410854,22.2240686 C3.10058815,22.0601759 2.57651591,21.8655534 2.18089275,21.5275249 C1.98565015,21.3585106 1.87261497,21.2048613 1.85206311,21.0921851 C1.8263733,20.9436574 1.95482238,20.7234266 2.02675386,20.6056288 C2.2168585,20.3136951 2.41210109,20.0320046 2.62275758,19.7349492 C2.78203444,19.5095968 2.95158722,19.2740012 3.11086408,19.0332839 C3.18793353,18.9206077 3.26500297,18.8028099 3.34207242,18.6901337 C3.75310947,18.0755363 4.17956041,17.4404524 4.58032153,16.7951251 C5.3921197,15.4839841 5.87508824,14.0089504 6.02408917,12.4109972 C6.11143454,11.4942228 6.23988362,10.5876917 6.41971233,9.70676883 C6.49164381,9.33801041 6.59954104,9.0051035 6.73826604,8.71316975 C6.95406049,8.25222172 6.75881789,7.70420574 6.29640121,7.48397501 C5.83398453,7.26886594 5.28422248,7.46348844 5.06329006,7.92443646 C4.8629095,8.34953297 4.70363265,8.83096758 4.60087338,9.34313205 C4.41076875,10.2855147 4.27204374,11.2586272 4.17956041,12.2368613 C4.05624929,13.5633673 3.67090206,14.7413456 2.99782889,15.8271343 C2.61761962,16.4468533 2.20144461,17.0665723 1.80068348,17.6658047 C1.72361404,17.7784809 1.64654459,17.8962788 1.56947514,18.0089549 C1.42047421,18.2291857 1.26633532,18.4442947 1.10705846,18.6747688 C0.896401973,18.9769458 0.675469559,19.2893661 0.464813071,19.6120297 C-0.295605471,20.8207379 -0.120914725,21.9987162 0.97347142,22.9359772 C1.61571681,23.4891148 2.34530757,23.7708053 3.03893259,23.9961576 C4.8218058,24.5697818 6.78450771,24.8873238 9.21476427,25 C9.23017816,25 9.24559204,25 9.25586797,25 L11.7477801,25 C11.763194,25 11.7786079,25 11.7888838,25 C14.2191403,24.8873238 16.1818423,24.5697818 17.9647155,23.9961576 C18.6583405,23.7759269 19.3879312,23.4942364 20.0301766,22.9359772 C21.1194248,21.9935945 21.2992535,20.8156163 20.5285591,19.622273 Z" id="Path"></path>
            </g>
        </g>
    </g>
</svg>